<svg viewBox="0 0 16 16" width="16px" height="16px"><path fill="#828282" d="m 15.546,9.7506277 0,5.6334203 -3.265901,0 0,-5.256128 c 0,-1.3203818 -0.472376,-2.2214887 -1.654526,-2.2214887 -0.9024175,0 -1.4394512,0.6072777 -1.6757099,1.1947217 -0.086154,0.2100104 -0.1083318,0.5023139 -0.1083318,0.7962845 l 0,5.4866105 -3.2669975,0 c 0,0 0.044015,-8.9021531 0,-9.8244829 l 3.2666757,0 0,1.3925804 c -0.00663,0.010433 -0.015208,0.021642 -0.021447,0.031732 l 0.021447,0 0,-0.031732 C 9.2752195,6.2836804 10.05032,5.328761 11.785224,5.328761 13.93466,5.328722 15.546,6.7329275 15.546,9.7506277 Z M 2.1571095,0.82367494 c -1.1176342,0 -1.84866125,0.73307906 -1.84866125,1.69710856 0,0.9430163 0.70987735,1.6983469 1.80529935,1.6983469 l 0.021837,0 c 1.139286,0 1.8478132,-0.7551892 1.8478132,-1.6983469 C 3.9619508,1.556754 3.2748705,0.82367494 2.1571243,0.82367494 Z M 0.50248058,15.384048 l 3.26575952,0 0,-9.8244829 -3.26575952,0 0,9.8244829 z"/></svg>